# xmcd
#
# Track frame offsets:
#	150
#	17439
#	31583
#	50008
#	64660
#	81332
#	96005
#	113586
#	131609
#	157683
#	177048
#	192616
#	222566
#	237875
#
# Disc length: 3367 seconds
#
# Revision: 1
# Processed by: cddbd v1.4b42PL1 Copyright (c) Steve Scherf et al.
# Submitted via: audiograbber 1.80.04
#
DISCID=af0d250e
DTITLE=Real de Catorce - Contraley
DYEAR=1994
DGENRE=Blues
TTITLE0=El taxi de los sueños
TTITLE1=Blues del atajo
TTITLE2=Dorina y Abel
TTITLE3=Jeny
TTITLE4=Llame por favor
TTITLE5=Tu alma no pesa
TTITLE6=Contraley
TTITLE7=El quinqué
TTITLE8=Devoto amor
TTITLE9=El honor y la furia
TTITLE10=Beso de ginebra
TTITLE11=Esta noche
TTITLE12=Tu alma no pesa (demo)
TTITLE13=Jeny (demo)
EXTD=
EXTT0=
EXTT1=
EXTT2=
EXTT3=
EXTT4=
EXTT5=
EXTT6=
EXTT7=
EXTT8=
EXTT9=
EXTT10=
EXTT11=
EXTT12=
EXTT13=
PLAYORDER=
